<svg xmlns="http://www.w3.org/2000/svg" viewBox="0 0 656.0 738.0" font-family="system-ui, sans-serif">
<rect width="656.0" height="738.0" fill="#fbf9f4"/>
<rect x="88.0" y="84.0" width="494.0" height="351.99999999999994" stroke="#b0a58f" stroke-dasharray="6 5" fill="none"/>
<line x1="88.0" y1="260.0" x2="582.0" y2="260.0" stroke="#b0a58f" stroke-dasharray="10 4 2 4"/>
<rect x="112.0" y="108.0" width="446.0" height="304.0" fill="#4a4238" />
<rect x="122.0" y="258.0" width="426.0" height="144.0" fill="#ffffff" />
<rect x="122.0" y="118.0" width="108.0" height="134.0" fill="#ffffff" />
<rect x="236.0" y="118.0" width="108.0" height="134.0" fill="#ffffff" />
<rect x="350.0" y="118.0" width="70.0" height="134.0" fill="#ffffff" />
<rect x="426.0" y="118.0" width="122.0" height="134.0" fill="#ffffff" />
<rect x="114.4" y="110.4" width="441.2" height="147.6" fill="none" stroke="#c2703e" stroke-width="2" stroke-dasharray="9 6"/>
<text x="335.0" y="240.0" font-size="9.5" fill="#c2703e" text-anchor="middle" >hems above · ~38 m² (GUA)</text>
<rect x="144.0" y="401.2" width="360.0" height="11.6" fill="#7fb2d9" />
<rect x="304.0" y="399.6" width="40.0" height="14.8" fill="#8a5a2b" />
<rect x="111.2" y="320.0" width="11.6" height="60.0" fill="#7fb2d9" />
<rect x="547.2" y="320.0" width="11.6" height="60.0" fill="#7fb2d9" />
<rect x="140.0" y="107.2" width="48.0" height="11.6" fill="#7fb2d9" />
<rect x="256.0" y="107.2" width="48.0" height="11.6" fill="#7fb2d9" />
<rect x="468.0" y="105.6" width="40.0" height="14.8" fill="#8a5a2b" />
<text x="488.0" y="94.0" font-size="10" fill="#6b5335" text-anchor="middle" >entrance</text>
<rect x="175.0" y="436.4" width="320.0" height="120.0" fill="#e8d9be" stroke="#b59a6a"/>
<text x="335.0" y="482.4" font-size="11" fill="#6b5335" text-anchor="middle" >Deck 8 × 3 m</text>
<text x="335.0" y="506.4" font-size="10" fill="#8a7350" text-anchor="middle" >Storage / tech room ~19 m² · h 1.9 m below</text>
<rect x="317.0" y="554.0" width="36.0" height="4.8" fill="#8a5a2b" />
<text x="335.0" y="576.4" font-size="9" fill="#999" text-anchor="middle" >door to the room on the lower (sea) side</text>
<text x="335.0" y="323.6" font-size="11.5" fill="#222" text-anchor="middle" font-weight="600">Allrom — stue / kjøkken</text>
<text x="335.0" y="345.2" font-size="10" fill="#777" text-anchor="middle" >38.3 m²</text>
<text x="176.0" y="178.6" font-size="11.5" fill="#222" text-anchor="middle" font-weight="600">Bedroom 1</text>
<text x="176.0" y="200.2" font-size="10" fill="#777" text-anchor="middle" >9.0 m²</text>
<text x="290.0" y="178.6" font-size="11.5" fill="#222" text-anchor="middle" font-weight="600">Bedroom 2</text>
<text x="290.0" y="200.2" font-size="10" fill="#777" text-anchor="middle" >9.0 m²</text>
<text x="385.0" y="178.6" font-size="9.5" fill="#222" text-anchor="middle" font-weight="600">Bath</text>
<text x="385.0" y="200.2" font-size="9" fill="#777" text-anchor="middle" >5.9 m²</text>
<text x="487.0" y="178.6" font-size="11.5" fill="#222" text-anchor="middle" font-weight="600">Entrance + stair</text>
<text x="487.0" y="200.2" font-size="10" fill="#777" text-anchor="middle" >10.2 m²</text>
<line x1="36.0" y1="436.0" x2="36.0" y2="84.0" stroke="#8a6d3b" />
<line x1="31.2" y1="436.0" x2="40.8" y2="436.0" stroke="#8a6d3b" />
<line x1="31.2" y1="84.0" x2="40.8" y2="84.0" stroke="#8a6d3b" />
<text x="22.0" y="260.0" font-size="10.5" fill="#8a6d3b" text-anchor="middle" transform="rotate(-90 22.0 260.0)">8.8 m roof</text>
<line x1="58.0" y1="412.0" x2="58.0" y2="108.0" stroke="#8a6d3b" />
<line x1="53.2" y1="412.0" x2="62.8" y2="412.0" stroke="#8a6d3b" />
<line x1="53.2" y1="108.0" x2="62.8" y2="108.0" stroke="#8a6d3b" />
<text x="73.2" y="260.0" font-size="10.5" fill="#8a6d3b" text-anchor="middle" transform="rotate(-90 73.2 260.0)">7.6 m</text>
<line x1="88.0" y1="22.0" x2="582.0" y2="22.0" stroke="#8a6d3b" />
<line x1="88.0" y1="26.8" x2="88.0" y2="17.2" stroke="#8a6d3b" />
<line x1="582.0" y1="26.8" x2="582.0" y2="17.2" stroke="#8a6d3b" />
<text x="335.0" y="8.0" font-size="10.5" fill="#8a6d3b" text-anchor="middle" >12.35 m roof</text>
<line x1="112.0" y1="42.0" x2="558.0" y2="42.0" stroke="#8a6d3b" />
<line x1="112.0" y1="46.8" x2="112.0" y2="37.2" stroke="#8a6d3b" />
<line x1="558.0" y1="46.8" x2="558.0" y2="37.2" stroke="#8a6d3b" />
<text x="335.0" y="58.8" font-size="10.5" fill="#8a6d3b" text-anchor="middle" >11.15 m</text>
<line x1="175.0" y1="604.4" x2="495.0" y2="604.4" stroke="#8a6d3b" />
<line x1="175.0" y1="609.2" x2="175.0" y2="599.6" stroke="#8a6d3b" />
<line x1="495.0" y1="609.2" x2="495.0" y2="599.6" stroke="#8a6d3b" />
<text x="335.0" y="622.4" font-size="10.5" fill="#8a6d3b" text-anchor="middle" >8.0 m</text>
<line x1="624.0" y1="620.0" x2="608.5" y2="661.2" stroke="#333" stroke-width="1.6"/>
<circle cx="624.0" cy="620.0" r="2.5" fill="#333"/>
<text x="602.2" y="678.0" font-size="12" fill="#333" text-anchor="middle" font-weight="700">N</text>
<text x="136.0" y="656.0" font-size="11" fill="#4d7ba6" text-anchor="middle" >⌄ sea / fjord</text>
<text x="604.0" y="10.0" font-size="11" fill="#777" text-anchor="middle" >road side ⌃</text>
<text x="14.0" y="698.0" font-size="16" font-weight="700" fill="#222">Kalsneset 27 — Furutangen 75 massing, eave toward the sea (approx.)</text>
<text x="14.0" y="718.0" font-size="11" fill="#666">walls 11.15 × 7.6 m · BRA 74 m² + hems ~38 m² · 30° roof, ridge 5.0 / gesims 2.8 · window band on the long sea wall · storage/tech ~19 m², h 1.9 m below deck · layout indicative, final plan per manufacturer · scale 1:100 @ 40px/m</text>
</svg>