<svg xmlns="http://www.w3.org/2000/svg" viewBox="0 0 472.0 870.0" font-family="system-ui, sans-serif">
<rect width="472.0" height="870.0" fill="#fbf9f4"/>
<rect x="88.0" y="64.0" width="304.0" height="512.0" stroke="#b0a58f" stroke-dasharray="6 5" fill="none"/>
<line x1="240.0" y1="576.0" x2="240.0" y2="64.0" stroke="#b0a58f" stroke-dasharray="10 4 2 4"/>
<rect x="104.0" y="80.0" width="272.0" height="480.0" fill="#4a4238" />
<rect x="114.0" y="390.0" width="252.0" height="160.0" fill="#ffffff" />
<rect x="114.0" y="272.0" width="252.0" height="112.0" fill="#ffffff" />
<rect x="114.0" y="194.0" width="96.0" height="72.0" fill="#ffffff" />
<rect x="216.0" y="194.0" width="54.0" height="72.0" fill="#ffffff" />
<rect x="276.0" y="194.0" width="90.0" height="72.0" fill="#ffffff" />
<rect x="114.0" y="90.0" width="123.0" height="98.0" fill="#ffffff" />
<rect x="243.0" y="90.0" width="123.0" height="98.0" fill="#ffffff" />
<rect x="106.4" y="82.4" width="267.2" height="189.6" fill="none" stroke="#c2703e" stroke-width="2" stroke-dasharray="9 6"/>
<text x="240.0" y="175.2" font-size="9.5" fill="#c2703e" text-anchor="middle" >hems above · ~18 m²</text>
<rect x="132.0" y="549.2" width="200.0" height="11.6" fill="#7fb2d9" />
<rect x="204.0" y="547.6" width="40.0" height="14.8" fill="#8a5a2b" />
<rect x="103.2" y="296.0" width="11.6" height="72.0" fill="#7fb2d9" />
<rect x="365.2" y="448.0" width="11.6" height="72.0" fill="#7fb2d9" />
<rect x="136.0" y="79.2" width="48.0" height="11.6" fill="#7fb2d9" />
<rect x="272.0" y="79.2" width="48.0" height="11.6" fill="#7fb2d9" />
<rect x="363.6" y="212.0" width="14.8" height="40.0" fill="#8a5a2b" />
<text x="406.0" y="232.0" font-size="10" fill="#6b5335" text-anchor="start" >entrance</text>
<rect x="80.0" y="584.4" width="320.0" height="120.0" fill="#e8d9be" stroke="#b59a6a"/>
<line x1="292.0" y1="704.4" x2="292.0" y2="584.4" stroke="#b59a6a" stroke-dasharray="5 4"/>
<text x="186.0" y="630.4" font-size="11" fill="#6b5335" text-anchor="middle" >Deck 8 × 3 m</text>
<text x="186.0" y="654.4" font-size="10" fill="#8a7350" text-anchor="middle" >Storage 12 m² below</text>
<text x="346.0" y="640.4" font-size="10" fill="#8a7350" text-anchor="middle" >Tech 5.5 m²</text>
<text x="346.0" y="660.4" font-size="10" fill="#8a7350" text-anchor="middle" >below</text>
<rect x="168.0" y="702.0" width="36.0" height="4.8" fill="#8a5a2b" />
<rect x="328.0" y="702.0" width="36.0" height="4.8" fill="#8a5a2b" />
<text x="240.0" y="724.4" font-size="9" fill="#999" text-anchor="middle" >doors to storage / tech on the lower (sea) side</text>
<text x="240.0" y="463.6" font-size="11.5" fill="#222" text-anchor="middle" font-weight="600">Living room</text>
<text x="240.0" y="485.2" font-size="10" fill="#777" text-anchor="middle" >25.2 m²</text>
<text x="240.0" y="321.6" font-size="11.5" fill="#222" text-anchor="middle" font-weight="600">Kitchen / dining</text>
<text x="240.0" y="343.2" font-size="10" fill="#777" text-anchor="middle" >17.6 m²</text>
<text x="162.0" y="223.6" font-size="11.5" fill="#222" text-anchor="middle" font-weight="600">Bath</text>
<text x="162.0" y="245.2" font-size="10" fill="#777" text-anchor="middle" >4.3 m²</text>
<text x="243.0" y="223.6" font-size="9.5" fill="#222" text-anchor="middle" font-weight="600">Stair</text>
<text x="243.0" y="245.2" font-size="9" fill="#777" text-anchor="middle" >2.4 m²</text>
<text x="321.0" y="223.6" font-size="11.5" fill="#222" text-anchor="middle" font-weight="600">Hall</text>
<text x="321.0" y="245.2" font-size="10" fill="#777" text-anchor="middle" >4.1 m²</text>
<text x="175.5" y="132.6" font-size="11.5" fill="#222" text-anchor="middle" font-weight="600">Bedroom 1</text>
<text x="175.5" y="154.2" font-size="10" fill="#777" text-anchor="middle" >7.5 m²</text>
<text x="304.5" y="132.6" font-size="11.5" fill="#222" text-anchor="middle" font-weight="600">Bedroom 2</text>
<text x="304.5" y="154.2" font-size="10" fill="#777" text-anchor="middle" >7.5 m²</text>
<line x1="36.0" y1="576.0" x2="36.0" y2="64.0" stroke="#8a6d3b" />
<line x1="31.2" y1="576.0" x2="40.8" y2="576.0" stroke="#8a6d3b" />
<line x1="31.2" y1="64.0" x2="40.8" y2="64.0" stroke="#8a6d3b" />
<text x="22.0" y="320.0" font-size="10.5" fill="#8a6d3b" text-anchor="middle" transform="rotate(-90 22.0 320.0)">12.8 m roof</text>
<line x1="58.0" y1="560.0" x2="58.0" y2="80.0" stroke="#8a6d3b" />
<line x1="53.2" y1="560.0" x2="62.8" y2="560.0" stroke="#8a6d3b" />
<line x1="53.2" y1="80.0" x2="62.8" y2="80.0" stroke="#8a6d3b" />
<text x="73.2" y="320.0" font-size="10.5" fill="#8a6d3b" text-anchor="middle" transform="rotate(-90 73.2 320.0)">12.0 m</text>
<line x1="88.0" y1="22.0" x2="392.0" y2="22.0" stroke="#8a6d3b" />
<line x1="88.0" y1="26.8" x2="88.0" y2="17.2" stroke="#8a6d3b" />
<line x1="392.0" y1="26.8" x2="392.0" y2="17.2" stroke="#8a6d3b" />
<text x="240.0" y="8.0" font-size="10.5" fill="#8a6d3b" text-anchor="middle" >7.6 m roof</text>
<line x1="104.0" y1="42.0" x2="376.0" y2="42.0" stroke="#8a6d3b" />
<line x1="104.0" y1="46.8" x2="104.0" y2="37.2" stroke="#8a6d3b" />
<line x1="376.0" y1="46.8" x2="376.0" y2="37.2" stroke="#8a6d3b" />
<text x="240.0" y="58.8" font-size="10.5" fill="#8a6d3b" text-anchor="middle" >6.8 m</text>
<line x1="80.0" y1="752.4" x2="400.0" y2="752.4" stroke="#8a6d3b" />
<line x1="80.0" y1="757.2" x2="80.0" y2="747.6" stroke="#8a6d3b" />
<line x1="400.0" y1="757.2" x2="400.0" y2="747.6" stroke="#8a6d3b" />
<text x="240.0" y="770.4" font-size="10.5" fill="#8a6d3b" text-anchor="middle" >8.0 m</text>
<line x1="444.0" y1="752.0" x2="428.5" y2="793.2" stroke="#333" stroke-width="1.6"/>
<circle cx="444.0" cy="752.0" r="2.5" fill="#333"/>
<text x="422.2" y="810.0" font-size="12" fill="#333" text-anchor="middle" font-weight="700">N</text>
<text x="136.0" y="788.0" font-size="11" fill="#4d7ba6" text-anchor="middle" >⌄ sea / fjord</text>
<text x="392.0" y="10.0" font-size="11" fill="#777" text-anchor="middle" >road side ⌃</text>
<text x="14.0" y="830.0" font-size="16" font-weight="700" fill="#222">Kalsneset 27 — catalog cabin concept (ferdighytte)</text>
<text x="14.0" y="850.0" font-size="11" fill="#666">12 × 6.8 m ≈ 82 m² + hems · 33° roof · window wall to the sea · concrete slab · storage 12 m² + tech 5.5 m² below deck · layout indicative, final plan per manufacturer · scale 1:100 @ 40px/m</text>
</svg>