<svg xmlns="http://www.w3.org/2000/svg" viewBox="0 0 504.0 886.0" font-family="system-ui, sans-serif">
<rect width="504.0" height="886.0" fill="#fbf9f4"/>
<rect x="88.0" y="90.0" width="351.99999999999994" height="494.0" stroke="#b0a58f" stroke-dasharray="6 5" fill="none"/>
<line x1="264.0" y1="584.0" x2="264.0" y2="90.0" stroke="#b0a58f" stroke-dasharray="10 4 2 4"/>
<rect x="112.0" y="114.0" width="304.0" height="446.0" fill="#4a4238" />
<rect x="122.0" y="336.0" width="284.0" height="214.0" fill="#ffffff" />
<rect x="122.0" y="258.0" width="96.0" height="72.0" fill="#ffffff" />
<rect x="224.0" y="258.0" width="54.0" height="72.0" fill="#ffffff" />
<rect x="284.0" y="258.0" width="122.0" height="72.0" fill="#ffffff" />
<rect x="122.0" y="124.0" width="139.0" height="128.0" fill="#ffffff" />
<rect x="267.0" y="124.0" width="139.0" height="128.0" fill="#ffffff" />
<rect x="114.4" y="116.4" width="299.2" height="219.6" fill="none" stroke="#c2703e" stroke-width="2" stroke-dasharray="9 6"/>
<text x="264.0" y="239.2" font-size="9.5" fill="#c2703e" text-anchor="middle" >hems above · ~38 m² (GUA)</text>
<rect x="132.0" y="549.2" width="232.0" height="11.6" fill="#7fb2d9" />
<rect x="228.0" y="547.6" width="40.0" height="14.8" fill="#8a5a2b" />
<rect x="111.2" y="304.0" width="11.6" height="72.0" fill="#7fb2d9" />
<rect x="405.2" y="456.0" width="11.6" height="72.0" fill="#7fb2d9" />
<rect x="136.0" y="113.2" width="48.0" height="11.6" fill="#7fb2d9" />
<rect x="296.0" y="113.2" width="48.0" height="11.6" fill="#7fb2d9" />
<rect x="403.6" y="276.0" width="14.8" height="40.0" fill="#8a5a2b" />
<text x="446.0" y="296.0" font-size="10" fill="#6b5335" text-anchor="start" >entrance</text>
<rect x="112.0" y="560.0" width="304.0" height="120.0" fill="#e8d9be" stroke="#b59a6a"/>
<text x="264.0" y="606.0" font-size="11" fill="#6b5335" text-anchor="middle" >Deck 7.6 × 3 m</text>
<text x="264.0" y="630.0" font-size="10" fill="#8a7350" text-anchor="middle" >Storage / tech room ~18 m² · h 1.9 m below</text>
<rect x="246.0" y="677.6" width="36.0" height="4.8" fill="#8a5a2b" />
<text x="264.0" y="700.0" font-size="9" fill="#999" text-anchor="middle" >door to the room on the lower (sea) side</text>
<text x="264.0" y="436.6" font-size="11.5" fill="#222" text-anchor="middle" font-weight="600">Allrom — stue / kjøkken</text>
<text x="264.0" y="458.2" font-size="10" fill="#777" text-anchor="middle" >38.0 m²</text>
<text x="170.0" y="287.6" font-size="11.5" fill="#222" text-anchor="middle" font-weight="600">Bath</text>
<text x="170.0" y="309.2" font-size="10" fill="#777" text-anchor="middle" >4.3 m²</text>
<text x="251.0" y="287.6" font-size="9.5" fill="#222" text-anchor="middle" font-weight="600">Stair</text>
<text x="251.0" y="309.2" font-size="9" fill="#777" text-anchor="middle" >2.4 m²</text>
<text x="345.0" y="287.6" font-size="11.5" fill="#222" text-anchor="middle" font-weight="600">Hall</text>
<text x="345.0" y="309.2" font-size="10" fill="#777" text-anchor="middle" >5.5 m²</text>
<text x="191.5" y="181.6" font-size="11.5" fill="#222" text-anchor="middle" font-weight="600">Bedroom 1</text>
<text x="191.5" y="203.2" font-size="10" fill="#777" text-anchor="middle" >11.1 m²</text>
<text x="336.5" y="181.6" font-size="11.5" fill="#222" text-anchor="middle" font-weight="600">Bedroom 2</text>
<text x="336.5" y="203.2" font-size="10" fill="#777" text-anchor="middle" >11.1 m²</text>
<line x1="36.0" y1="584.0" x2="36.0" y2="90.0" stroke="#8a6d3b" />
<line x1="31.2" y1="584.0" x2="40.8" y2="584.0" stroke="#8a6d3b" />
<line x1="31.2" y1="90.0" x2="40.8" y2="90.0" stroke="#8a6d3b" />
<text x="22.0" y="337.0" font-size="10.5" fill="#8a6d3b" text-anchor="middle" transform="rotate(-90 22.0 337.0)">12.35 m roof</text>
<line x1="58.0" y1="560.0" x2="58.0" y2="114.0" stroke="#8a6d3b" />
<line x1="53.2" y1="560.0" x2="62.8" y2="560.0" stroke="#8a6d3b" />
<line x1="53.2" y1="114.0" x2="62.8" y2="114.0" stroke="#8a6d3b" />
<text x="73.2" y="337.0" font-size="10.5" fill="#8a6d3b" text-anchor="middle" transform="rotate(-90 73.2 337.0)">11.15 m</text>
<line x1="88.0" y1="22.0" x2="440.0" y2="22.0" stroke="#8a6d3b" />
<line x1="88.0" y1="26.8" x2="88.0" y2="17.2" stroke="#8a6d3b" />
<line x1="440.0" y1="26.8" x2="440.0" y2="17.2" stroke="#8a6d3b" />
<text x="264.0" y="8.0" font-size="10.5" fill="#8a6d3b" text-anchor="middle" >8.8 m roof</text>
<line x1="112.0" y1="42.0" x2="416.0" y2="42.0" stroke="#8a6d3b" />
<line x1="112.0" y1="46.8" x2="112.0" y2="37.2" stroke="#8a6d3b" />
<line x1="416.0" y1="46.8" x2="416.0" y2="37.2" stroke="#8a6d3b" />
<text x="264.0" y="58.8" font-size="10.5" fill="#8a6d3b" text-anchor="middle" >7.6 m</text>
<line x1="112.0" y1="728.0" x2="416.0" y2="728.0" stroke="#8a6d3b" />
<line x1="112.0" y1="732.8" x2="112.0" y2="723.2" stroke="#8a6d3b" />
<line x1="416.0" y1="732.8" x2="416.0" y2="723.2" stroke="#8a6d3b" />
<text x="264.0" y="746.0" font-size="10.5" fill="#8a6d3b" text-anchor="middle" >7.6 m</text>
<line x1="472.0" y1="768.0" x2="456.5" y2="809.2" stroke="#333" stroke-width="1.6"/>
<circle cx="472.0" cy="768.0" r="2.5" fill="#333"/>
<text x="450.2" y="826.0" font-size="12" fill="#333" text-anchor="middle" font-weight="700">N</text>
<text x="136.0" y="804.0" font-size="11" fill="#4d7ba6" text-anchor="middle" >⌄ sea / fjord</text>
<text x="416.0" y="10.0" font-size="11" fill="#777" text-anchor="middle" >road side ⌃</text>
<text x="14.0" y="846.0" font-size="16" font-weight="700" fill="#222">Kalsneset 27 — Familiehytta Furutangen 75 med hems (approx.)</text>
<text x="14.0" y="866.0" font-size="11" fill="#666">walls 11.15 × 7.6 m · BRA 74 m² + hems ~38 m² · 30° roof, ridge 5.0 / gesims 2.8 · window wall to the sea · storage/tech ~19 m², h 1.9 m below deck · variants A–E in the 3D viewer · layout indicative, final plan per manufacturer · scale 1:100 @ 40px/m</text>
</svg>