<svg xmlns="http://www.w3.org/2000/svg" viewBox="0 0 472.0 870.0" font-family="system-ui, sans-serif">
<rect width="472.0" height="870.0" fill="#fbf9f4"/>
<rect x="88.0" y="82.0" width="351.99999999999994" height="494.0" stroke="#b0a58f" stroke-dasharray="6 5" fill="none"/>
<line x1="264.0" y1="576.0" x2="264.0" y2="82.0" stroke="#b0a58f" stroke-dasharray="10 4 2 4"/>
<rect x="112.0" y="106.0" width="304.0" height="446.0" fill="#4a4238" />
<rect x="122.0" y="328.0" width="284.0" height="214.0" fill="#ffffff" />
<rect x="122.0" y="250.0" width="96.0" height="72.0" fill="#ffffff" />
<rect x="224.0" y="250.0" width="54.0" height="72.0" fill="#ffffff" />
<rect x="284.0" y="250.0" width="122.0" height="72.0" fill="#ffffff" />
<rect x="122.0" y="116.0" width="139.0" height="128.0" fill="#ffffff" />
<rect x="267.0" y="116.0" width="139.0" height="128.0" fill="#ffffff" />
<rect x="114.4" y="108.4" width="299.2" height="219.6" fill="none" stroke="#c2703e" stroke-width="2" stroke-dasharray="9 6"/>
<text x="264.0" y="231.2" font-size="9.5" fill="#c2703e" text-anchor="middle" >hems above · ~38 m² (GUA)</text>
<rect x="132.0" y="541.2" width="200.0" height="11.6" fill="#7fb2d9" />
<rect x="204.0" y="539.6" width="40.0" height="14.8" fill="#8a5a2b" />
<rect x="111.2" y="296.0" width="11.6" height="72.0" fill="#7fb2d9" />
<rect x="405.2" y="448.0" width="11.6" height="72.0" fill="#7fb2d9" />
<rect x="136.0" y="105.2" width="48.0" height="11.6" fill="#7fb2d9" />
<rect x="272.0" y="105.2" width="48.0" height="11.6" fill="#7fb2d9" />
<rect x="403.6" y="268.0" width="14.8" height="40.0" fill="#8a5a2b" />
<text x="446.0" y="288.0" font-size="10" fill="#6b5335" text-anchor="start" >entrance</text>
<rect x="104.0" y="584.4" width="320.0" height="120.0" fill="#e8d9be" stroke="#b59a6a"/>
<text x="264.0" y="630.4" font-size="11" fill="#6b5335" text-anchor="middle" >Deck 8 × 3 m</text>
<text x="264.0" y="654.4" font-size="10" fill="#8a7350" text-anchor="middle" >Storage / tech room ~19 m² below</text>
<rect x="246.0" y="702.0" width="36.0" height="4.8" fill="#8a5a2b" />
<text x="264.0" y="724.4" font-size="9" fill="#999" text-anchor="middle" >door to the room on the lower (sea) side</text>
<text x="264.0" y="428.6" font-size="11.5" fill="#222" text-anchor="middle" font-weight="600">Allrom — stue / kjøkken</text>
<text x="264.0" y="450.2" font-size="10" fill="#777" text-anchor="middle" >38.0 m²</text>
<text x="170.0" y="279.6" font-size="11.5" fill="#222" text-anchor="middle" font-weight="600">Bath</text>
<text x="170.0" y="301.2" font-size="10" fill="#777" text-anchor="middle" >4.3 m²</text>
<text x="251.0" y="279.6" font-size="9.5" fill="#222" text-anchor="middle" font-weight="600">Stair</text>
<text x="251.0" y="301.2" font-size="9" fill="#777" text-anchor="middle" >2.4 m²</text>
<text x="345.0" y="279.6" font-size="11.5" fill="#222" text-anchor="middle" font-weight="600">Hall</text>
<text x="345.0" y="301.2" font-size="10" fill="#777" text-anchor="middle" >5.5 m²</text>
<text x="191.5" y="173.6" font-size="11.5" fill="#222" text-anchor="middle" font-weight="600">Bedroom 1</text>
<text x="191.5" y="195.2" font-size="10" fill="#777" text-anchor="middle" >11.1 m²</text>
<text x="336.5" y="173.6" font-size="11.5" fill="#222" text-anchor="middle" font-weight="600">Bedroom 2</text>
<text x="336.5" y="195.2" font-size="10" fill="#777" text-anchor="middle" >11.1 m²</text>
<line x1="36.0" y1="576.0" x2="36.0" y2="82.0" stroke="#8a6d3b" />
<line x1="31.2" y1="576.0" x2="40.8" y2="576.0" stroke="#8a6d3b" />
<line x1="31.2" y1="82.0" x2="40.8" y2="82.0" stroke="#8a6d3b" />
<text x="22.0" y="329.0" font-size="10.5" fill="#8a6d3b" text-anchor="middle" transform="rotate(-90 22.0 329.0)">12.3 m roof</text>
<line x1="58.0" y1="552.0" x2="58.0" y2="106.0" stroke="#8a6d3b" />
<line x1="53.2" y1="552.0" x2="62.8" y2="552.0" stroke="#8a6d3b" />
<line x1="53.2" y1="106.0" x2="62.8" y2="106.0" stroke="#8a6d3b" />
<text x="73.2" y="329.0" font-size="10.5" fill="#8a6d3b" text-anchor="middle" transform="rotate(-90 73.2 329.0)">11.2 m</text>
<line x1="88.0" y1="22.0" x2="440.0" y2="22.0" stroke="#8a6d3b" />
<line x1="88.0" y1="26.8" x2="88.0" y2="17.2" stroke="#8a6d3b" />
<line x1="440.0" y1="26.8" x2="440.0" y2="17.2" stroke="#8a6d3b" />
<text x="264.0" y="8.0" font-size="10.5" fill="#8a6d3b" text-anchor="middle" >8.8 m roof</text>
<line x1="112.0" y1="42.0" x2="416.0" y2="42.0" stroke="#8a6d3b" />
<line x1="112.0" y1="46.8" x2="112.0" y2="37.2" stroke="#8a6d3b" />
<line x1="416.0" y1="46.8" x2="416.0" y2="37.2" stroke="#8a6d3b" />
<text x="264.0" y="58.8" font-size="10.5" fill="#8a6d3b" text-anchor="middle" >7.6 m</text>
<line x1="104.0" y1="752.4" x2="424.0" y2="752.4" stroke="#8a6d3b" />
<line x1="104.0" y1="757.2" x2="104.0" y2="747.6" stroke="#8a6d3b" />
<line x1="424.0" y1="757.2" x2="424.0" y2="747.6" stroke="#8a6d3b" />
<text x="264.0" y="770.4" font-size="10.5" fill="#8a6d3b" text-anchor="middle" >8.0 m</text>
<line x1="444.0" y1="752.0" x2="428.5" y2="793.2" stroke="#333" stroke-width="1.6"/>
<circle cx="444.0" cy="752.0" r="2.5" fill="#333"/>
<text x="422.2" y="810.0" font-size="12" fill="#333" text-anchor="middle" font-weight="700">N</text>
<text x="136.0" y="788.0" font-size="11" fill="#4d7ba6" text-anchor="middle" >⌄ sea / fjord</text>
<text x="392.0" y="10.0" font-size="11" fill="#777" text-anchor="middle" >road side ⌃</text>
<text x="14.0" y="830.0" font-size="16" font-weight="700" fill="#222">Kalsneset 27 — Familiehytta Furutangen 75 med hems (approx.)</text>
<text x="14.0" y="850.0" font-size="11" fill="#666">walls 11.15 × 7.6 m · BRA 74 m² + hems ~38 m² · 30° roof, ridge 5.0 / gesims 2.8 · window wall to the sea · concrete slab · combined storage/tech room ~19 m² below deck · layout indicative, final plan per manufacturer · scale 1:100 @ 40px/m</text>
</svg>